<svg xmlns="http://www.w3.org/2000/svg" width="24" height="24" viewBox="0 0 24 24">
	<path d="M23.3,14.5l-0.7-2.1l0,0v0h-5.2l-0.7,2.1L16.4,19h7.2L23.3,14.5z M22.3,17.1h-4.6v-3.9h4.6V17.1z M14.6,12.4L14.6,12.4L14.6,12.4H9.4l-0.7,2.1L8.4,19h7.2l-0.3-4.5L14.6,12.4z M14.3,17.1H9.7v-3.9h4.6V17.1z M6.6,12.4L6.6,12.4 L6.6,12.4H1.4l-0.7,2.1L0.4,19h7.2l-0.3-4.5L6.6,12.4z M6.3,17.1H1.7v-3.9h4.6V17.1z M14.8,4.4L14.8,4.4L14.8,4.4H9.6L8.9,6.5 L8.6,11h7.2l-0.3-4.5L14.8,4.4z M14.5,9.1H9.9V5.1h4.6V9.1z"/>
</svg>